<svg xmlns="http://www.w3.org/2000/svg" version="1.1" xmlns:xlink="http://www.w3.org/1999/xlink" xmlns:svgjs="http://svgjs.dev/svgjs" width="1000" height="1000" viewBox="0 0 1000 1000"><rect width="1000" height="1000" fill="#000000"></rect><g transform="matrix(0.7,0,0,0.7,149.57575757575756,282.1265587044535)"><svg viewBox="0 0 396 247" data-background-color="#ffffff" preserveAspectRatio="xMidYMid meet" height="623" width="1000" xmlns="http://www.w3.org/2000/svg" xmlns:xlink="http://www.w3.org/1999/xlink"><defs></defs><g id="tight-bounds" transform="matrix(1,0,0,1,0.2400000000000091,-0.09999999999999432)"><svg viewBox="0 0 395.52 247.2" height="247.2" width="395.52"><g><svg></svg></g><g><svg viewBox="0 0 395.52 247.2" height="247.2" width="395.52"><g transform="matrix(1,0,0,1,75.54432000000001,103.9510042257852)"><svg viewBox="0 0 244.43135999999996 39.2979915484296" height="39.2979915484296" width="244.43135999999996"><g><svg viewBox="0 0 244.43135999999996 39.2979915484296" height="39.2979915484296" width="244.43135999999996"><g><svg viewBox="0 0 244.43135999999996 39.2979915484296" height="39.2979915484296" width="244.43135999999996"><g><svg viewBox="0 0 244.43135999999996 39.2979915484296" height="39.2979915484296" width="244.43135999999996"><g><svg viewBox="0 0 244.43135999999996 39.2979915484296" height="39.2979915484296" width="244.43135999999996"><g><svg viewBox="0 0 244.43135999999996 39.2979915484296" height="39.2979915484296" width="244.43135999999996"><g transform="matrix(1,0,0,1,0,0)"><svg width="244.43135999999996" viewBox="3.5 -36.1 227.63 36.6" height="39.2979915484296" data-palette-color="#2a160c"><path d="M19.55-4.3L19.55-25 22.5-25 22.5 0 19.55 0 19.55-1.85Q15.7 0.5 11.85 0.5L11.85 0.5Q6.75 0.5 5.13-2.1 3.5-4.7 3.5-11.95L3.5-11.95 3.5-25 6.45-25 6.45-12Q6.45-6.2 7.53-4.2 8.6-2.2 12.2-2.2L12.2-2.2Q13.95-2.2 15.8-2.73 17.65-3.25 18.6-3.8L18.6-3.8 19.55-4.3ZM32.95-20.7L32.95 0 30 0 30-25 32.95-25 32.95-23.15Q37.15-25.5 41.1-25.5L41.1-25.5Q46.1-25.5 47.77-22.85 49.45-20.2 49.45-13.15L49.45-13.15 49.45 0 46.45 0 46.45-13Q46.45-18.75 45.35-20.78 44.25-22.8 40.65-22.8L40.65-22.8Q38.9-22.8 36.97-22.28 35.05-21.75 34-21.2L34-21.2 32.95-20.7ZM72.34-36.1L75.34-36.1 75.34 0 72.34 0 72.34-1.85Q68.4 0.5 64.34 0.5L64.34 0.5Q62.5 0.5 61.15 0.08 59.8-0.35 58.4-1.6L58.4-1.6Q55.55-4.15 55.55-11.58 55.55-19 57.95-22.25 60.35-25.5 66.05-25.5L66.05-25.5Q68.25-25.5 72.34-24.85L72.34-24.85 72.34-36.1ZM60.6-3.85Q61.55-2.9 62.47-2.55 63.4-2.2 64.87-2.2 66.34-2.2 68.27-2.75 70.2-3.3 71.3-3.8L71.3-3.8 72.34-4.35 72.34-22.25Q68.34-22.85 66.15-22.85L66.15-22.85Q61.9-22.85 60.27-20.25 58.65-17.65 58.65-12.2L58.65-12.2Q58.65-5.8 60.6-3.85L60.6-3.85ZM99.34-2.5L99.34-2.5 100.84-2.65 100.94-0.2Q95.29 0.5 91.39 0.5L91.39 0.5Q85.99 0.45 83.84-2.7 81.69-5.85 81.69-12.4L81.69-12.4Q81.69-25.5 91.99-25.5L91.99-25.5Q96.94-25.5 99.39-22.68 101.84-19.85 101.84-13.65L101.84-13.65 101.74-11.25 84.74-11.25Q84.74-6.65 86.32-4.42 87.89-2.2 91.72-2.2 95.54-2.2 99.34-2.5ZM84.74-13.75L84.74-13.75 98.84-13.75Q98.84-18.7 97.22-20.8 95.59-22.9 92.02-22.9 88.44-22.9 86.59-20.73 84.74-18.55 84.74-13.75ZM110.94 0L107.99 0 107.99-25 110.94-25 110.94-21.4Q112.79-22.7 115.47-23.9 118.14-25.1 120.39-25.5L120.39-25.5 120.39-22.5Q118.24-22.05 115.89-21.13 113.54-20.2 112.24-19.5L112.24-19.5 110.94-18.75 110.94 0ZM132.49-22.75L132.49-22.75Q126.59-22.75 126.59-18.5L126.59-18.5Q126.59-16.55 127.89-15.75 129.19-14.95 133.76-14.18 138.34-13.4 140.21-12.05 142.09-10.7 142.09-6.88 142.09-3.05 139.64-1.28 137.19 0.5 132.44 0.5L132.44 0.5Q129.69 0.5 125.34-0.2L125.34-0.2 123.89-0.4 124.09-3.05Q129.69-2.2 132.69-2.2 135.69-2.2 137.36-3.25 139.04-4.3 139.04-6.8 139.04-9.3 137.66-10.13 136.29-10.95 131.76-11.65 127.24-12.35 125.39-13.65 123.54-14.95 123.54-18.55 123.54-22.15 126.09-23.8 128.64-25.45 132.39-25.45L132.39-25.45Q135.39-25.45 139.89-24.8L139.89-24.8 141.24-24.6 141.14-21.95Q135.79-22.75 132.49-22.75ZM157.44-25.5L157.44-25.5Q159.69-25.5 162.79-25L162.79-25 163.94-24.85 163.79-22.3Q159.84-22.8 157.94-22.8L157.94-22.8Q153.49-22.8 151.84-20.63 150.19-18.45 150.19-12.63 150.19-6.8 151.69-4.5 153.19-2.2 157.94-2.2L157.94-2.2 163.89-2.65 163.99-0.1Q159.54 0.5 157.39 0.5L157.39 0.5Q151.44 0.5 149.26-2.45 147.09-5.4 147.09-12.6 147.09-19.8 149.46-22.65 151.84-25.5 157.44-25.5ZM168.38-12.55Q168.38-19.6 170.76-22.55 173.13-25.5 178.86-25.5 184.58-25.5 186.96-22.55 189.33-19.6 189.33-12.55 189.33-5.5 187.16-2.5 184.98 0.5 178.88 0.5 172.78 0.5 170.58-2.5 168.38-5.5 168.38-12.55ZM171.48-12.63Q171.48-6.7 172.86-4.42 174.23-2.15 178.86-2.15 183.48-2.15 184.88-4.45 186.28-6.75 186.28-12.63 186.28-18.5 184.71-20.68 183.13-22.85 178.88-22.85 174.63-22.85 173.06-20.7 171.48-18.55 171.48-12.63ZM198.73 0L195.78 0 195.78-25 198.73-25 198.73-21.4Q200.58-22.7 203.26-23.9 205.93-25.1 208.18-25.5L208.18-25.5 208.18-22.5Q206.03-22.05 203.68-21.13 201.33-20.2 200.03-19.5L200.03-19.5 198.73-18.75 198.73 0ZM228.63-2.5L228.63-2.5 230.13-2.65 230.23-0.2Q224.58 0.5 220.68 0.5L220.68 0.5Q215.28 0.45 213.13-2.7 210.98-5.85 210.98-12.4L210.98-12.4Q210.98-25.5 221.28-25.5L221.28-25.5Q226.23-25.5 228.68-22.68 231.13-19.85 231.13-13.65L231.13-13.65 231.03-11.25 214.03-11.25Q214.03-6.65 215.6-4.42 217.18-2.2 221-2.2 224.83-2.2 228.63-2.5ZM214.03-13.75L214.03-13.75 228.13-13.75Q228.13-18.7 226.5-20.8 224.88-22.9 221.3-22.9 217.73-22.9 215.88-20.73 214.03-18.55 214.03-13.75Z" opacity="1" transform="matrix(1,0,0,1,0,0)" fill="#ffffff" class="undefined-text-0" data-fill-palette-color="primary" id="text-0"></path></svg></g></svg></g></svg></g></svg></g></svg></g></svg></g></svg></g><path d="M212.493 97.951L212.493 35.495 388.704 35.495 388.704 211.705 212.493 211.705 212.493 149.249 216.037 149.249 216.037 208.162 385.16 208.162 385.16 39.038 216.037 39.038 216.037 97.951Z" fill="#ffffff" stroke="transparent" data-fill-palette-color="primary"></path></svg></g></svg><rect width="395.52" height="247.2" fill="none" stroke="none" visibility="hidden"></rect></g></svg></g></svg>